<?xml version="1.0" encoding="UTF-8" standalone="no"?>
<!-- Created with Inkscape (http://www.inkscape.org/) -->

<svg
   xmlns:dc="http://purl.org/dc/elements/1.1/"
   xmlns:cc="http://creativecommons.org/ns#"
   xmlns:rdf="http://www.w3.org/1999/02/22-rdf-syntax-ns#"
   xmlns:svg="http://www.w3.org/2000/svg"
   xmlns="http://www.w3.org/2000/svg"
   xmlns:sodipodi="http://sodipodi.sourceforge.net/DTD/sodipodi-0.dtd"
   xmlns:inkscape="http://www.inkscape.org/namespaces/inkscape"
   width="174.55803mm"
   height="28.459782mm"
   viewBox="0 0 174.55803 28.459782"
   version="1.1"
   id="svg4734"
   sodipodi:docname="logoonepieceunaltered.svg"
   inkscape:version="0.92.2 (5c3e80d, 2017-08-06)">
  <defs
     id="defs4728" />
  <sodipodi:namedview
     id="base"
     pagecolor="#ffffff"
     bordercolor="#666666"
     borderopacity="1.0"
     inkscape:pageopacity="0.0"
     inkscape:pageshadow="2"
     inkscape:zoom="1.4"
     inkscape:cx="353.20735"
     inkscape:cy="33.725629"
     inkscape:document-units="mm"
     inkscape:current-layer="layer1"
     showgrid="false"
     inkscape:window-width="1920"
     inkscape:window-height="1027"
     inkscape:window-x="1912"
     inkscape:window-y="-8"
     inkscape:window-maximized="1"
     fit-margin-top="0"
     fit-margin-left="0"
     fit-margin-right="0"
     fit-margin-bottom="0" />
  <metadata
     id="metadata4731">
    <rdf:RDF>
      <cc:Work
         rdf:about="">
        <dc:format>image/svg+xml</dc:format>
        <dc:type
           rdf:resource="http://purl.org/dc/dcmitype/StillImage" />
        <dc:title></dc:title>
        <dc:title />
      </cc:Work>
    </rdf:RDF>
  </metadata>
  <g
     inkscape:label="Layer 1"
     inkscape:groupmode="layer"
     id="layer1"
     transform="translate(-36.734049,-59.199149)">
    <g
       style="fill:#000000;stroke:#000000;stroke-width:4.27327967;stroke-miterlimit:4;stroke-dasharray:none;fill-opacity:1"
       transform="matrix(0.46802461,0,0,0.46802461,56.567123,31.94871)"
       id="g4650">
      <path
         style="color:#000000;font-style:normal;font-variant:normal;font-weight:normal;font-stretch:normal;font-size:medium;line-height:normal;font-family:sans-serif;font-variant-ligatures:normal;font-variant-position:normal;font-variant-caps:normal;font-variant-numeric:normal;font-variant-alternates:normal;font-feature-settings:normal;text-indent:0;text-align:start;text-decoration:none;text-decoration-line:none;text-decoration-style:solid;text-decoration-color:#000000;letter-spacing:normal;word-spacing:normal;text-transform:none;writing-mode:lr-tb;direction:ltr;text-orientation:mixed;dominant-baseline:auto;baseline-shift:baseline;text-anchor:start;white-space:normal;shape-padding:0;clip-rule:nonzero;display:inline;overflow:visible;visibility:visible;opacity:1;isolation:auto;mix-blend-mode:normal;color-interpolation:sRGB;color-interpolation-filters:linearRGB;solid-color:#000000;solid-opacity:1;vector-effect:none;fill:#000000;fill-opacity:1;fill-rule:nonzero;stroke:none;stroke-width:7.55905533;stroke-linecap:butt;stroke-linejoin:miter;stroke-miterlimit:4;stroke-dasharray:none;stroke-dashoffset:0;stroke-opacity:1;color-rendering:auto;image-rendering:auto;shape-rendering:auto;text-rendering:auto;enable-background:accumulate"
         d="M 537.95703 -9.9355469 L 535.30664 -8.046875 L 532.65625 -6.15625 L 457.25391 47.582031 L 385.79883 47.582031 L 385.79883 62.699219 L 423.17383 62.699219 L 386.0293 84.300781 L 335.92383 55.162109 L 392.14453 22.703125 L 384.58594 9.6113281 L 381.31445 11.501953 L 366.78125 19.892578 L 213.34961 5.171875 C 212.86519 10.18972 212.3831 15.208554 211.90039 20.226562 L 225.88672 21.568359 L 232.08789 43.400391 L 173.0625 9.3222656 L 171.17188 10.414062 L 105.76758 48.175781 L 2.5976562 9.6464844 C 0.82971298 14.365834 -0.93186838 19.087563 -2.6953125 23.808594 L 12.210938 29.375 L 12.695312 80.726562 L -4.8652344 87.285156 L 0.42773438 101.45117 L 105.75586 62.111328 L 173.0625 101.82031 L 237.82812 63.611328 L 245.33008 90.029297 L 230.60352 100.52539 L 239.38477 112.83398 C 264.19075 95.152067 288.99791 77.471803 313.80469 59.791016 L 386.0293 101.78516 L 403.56445 91.589844 L 547.69922 105.41406 L 547.69922 105.50977 L 548.72852 105.51367 L 572.31836 107.77539 L 577.47852 88.125 L 570.43164 84.992188 L 570.46875 68.400391 L 657.36328 104.16602 L 662.66992 90.035156 L 597.78125 62.732422 L 647.45508 63.052734 L 649.94922 49.5 L 547.30664 11.166016 L 552.18945 4.8359375 L 537.95703 -9.9355469 z M 540.26367 20.298828 L 538.83008 24.140625 L 547.95312 27.548828 L 547.79883 74.935547 L 520.35547 62.738281 L 532.35742 62.738281 L 532.35742 47.619141 L 519.19336 47.619141 L 540.26367 20.298828 z M 248.81445 23.765625 L 327.69336 31.328125 L 263.04883 77.400391 L 248.81445 23.765625 z M 173.0625 26.775391 L 222.31445 55.208984 L 173.0625 84.269531 L 123.97461 55.306641 L 124.41992 55.140625 L 124.12109 55.029297 L 173.0625 26.775391 z M 570.54102 35.984375 L 601.75 47.640625 L 570.51562 47.439453 L 570.54102 35.984375 z M 34.802734 37.8125 L 81.203125 55.140625 L 34.972656 72.40625 L 34.802734 37.8125 z "
         transform="matrix(0.56531928,0,0,0.56531928,-42.376135,58.224372)"
         id="path4648" />
    </g>
    <g
       id="g4654"
       transform="matrix(0.46802461,0,0,0.46802461,112.66731,31.94871)"
       style="fill:#000000;stroke:#000000;stroke-width:4.27327967;stroke-miterlimit:4;stroke-dasharray:none;fill-opacity:1" />
    <g
       style="fill:#000000;stroke:#000000;stroke-width:4.27327967;stroke-miterlimit:4;stroke-dasharray:none;fill-opacity:1"
       transform="matrix(0.46802461,0,0,0.46802461,37.27958,31.94871)"
       id="g4658" />
    <g
       style="fill:#000000;stroke:#000000;stroke-width:3.41217661;stroke-miterlimit:4;stroke-dasharray:none;fill-opacity:1"
       transform="matrix(0.56616404,-0.1517032,0.1517032,0.56616404,83.14772,24.036637)"
       id="g4662" />
    <g
       id="g4670"
       transform="translate(57.852231,-47.748052)"
       style="fill:#000000;stroke:#000000;stroke-width:4;stroke-miterlimit:4;stroke-dasharray:none;fill-opacity:1">
      <g
         style="fill:#000000;stroke:#000000;stroke-width:8.54655933;stroke-miterlimit:4;stroke-dasharray:none;fill-opacity:1"
         transform="matrix(0.46802461,0,0,0.46802461,126.38986,79.784664)"
         id="g4668">
        <g
           id="g4666"
           transform="translate(-2.8265964)"
           style="fill:#000000;stroke:#000000;stroke-width:8.54655933;stroke-miterlimit:4;stroke-dasharray:none;fill-opacity:1" />
      </g>
    </g>
    <g
       style="fill:#000000;fill-opacity:1;stroke:#000000;stroke-width:4.27327967;stroke-miterlimit:4;stroke-dasharray:none"
       transform="matrix(0.46802461,0,0,0.46802461,131.54925,31.958923)"
       id="g4680" />
    <g
       style="fill:#000000;stroke:#000000;stroke-width:4.27327967;stroke-miterlimit:4;stroke-dasharray:none;fill-opacity:1"
       transform="matrix(0.46802461,0,0,0.46802461,117.16454,31.973317)"
       id="g4684" />
  </g>
</svg>
